<svg width="4359" height="1717" xmlns="http://www.w3.org/2000/svg" xmlns:xlink="http://www.w3.org/1999/xlink" xml:space="preserve" overflow="hidden"><g transform="translate(-46 -779)"><path d="M1313.5 812.166C1313.5 796.334 1326.33 783.5 1342.17 783.5L3206.83 783.5C3222.67 783.5 3235.5 796.334 3235.5 812.166L3235.5 926.834C3235.5 942.666 3222.67 955.5 3206.83 955.5L1342.17 955.5C1326.33 955.5 1313.5 942.666 1313.5 926.834Z" stroke="#1C334E" stroke-width="9.16667" stroke-linejoin="round" stroke-miterlimit="10" fill="#FFFFFF" fill-rule="evenodd"/><text font-family="Calibri,Calibri_MSFontService,sans-serif" font-weight="700" font-size="83" transform="matrix(1 0 0 1 1713.27 896)">Problem: How much data is lost?</text><path d="M116.5 1517.17C116.5 1501.33 129.335 1488.5 145.167 1488.5L1471.83 1488.5C1487.67 1488.5 1500.5 1501.33 1500.5 1517.17L1500.5 1631.83C1500.5 1647.67 1487.67 1660.5 1471.83 1660.5L145.167 1660.5C129.335 1660.5 116.5 1647.67 116.5 1631.83Z" stroke="#1C334E" stroke-width="9.16667" stroke-linejoin="round" stroke-miterlimit="10" fill="#FFFFFF" fill-rule="evenodd"/><text font-family="Calibri,Calibri_MSFontService,sans-serif" font-weight="700" font-size="83" transform="matrix(1 0 0 1 257.468 1602)">Compute Actual Size of HD (GiB) </text><path d="M3016.5 1523.17C3016.5 1507.33 3029.33 1494.5 3045.17 1494.5L4371.83 1494.5C4387.67 1494.5 4400.5 1507.33 4400.5 1523.17L4400.5 1637.83C4400.5 1653.67 4387.67 1666.5 4371.83 1666.5L3045.17 1666.5C3029.33 1666.5 3016.5 1653.67 3016.5 1637.83Z" stroke="#1C334E" stroke-width="9.16667" stroke-linejoin="round" stroke-miterlimit="10" fill="#FFFFFF" fill-rule="evenodd"/><text font-family="Calibri,Calibri_MSFontService,sans-serif" font-weight="700" font-size="83" transform="matrix(1 0 0 1 3074.73 1608)">Compute Theoretical Bytes Lost (GiB)</text><path d="M2276.22 955.5 2276.22 1074.42 2272.78 1074.42 2272.78 955.5ZM2288.25 1069.83 2274.5 1097.33 2260.75 1069.83Z"/><path d="M0.474239-1.65203 939.668 267.957 938.72 271.261-0.474239 1.65203ZM938.583 255.128 961.221 275.933 930.995 281.561Z" transform="matrix(-1 0 0 1 2274.72 1232.5)"/><path d="M50.5 1791.17C50.5 1775.33 63.3347 1762.5 79.1671 1762.5L1537.83 1762.5C1553.67 1762.5 1566.5 1775.33 1566.5 1791.17L1566.5 1905.83C1566.5 1921.67 1553.67 1934.5 1537.83 1934.5L79.1671 1934.5C63.3347 1934.5 50.5 1921.67 50.5 1905.83Z" stroke="#1C334E" stroke-width="9.16667" stroke-linejoin="round" stroke-miterlimit="10" fill="#FFFFFF" fill-rule="evenodd"/><text font-family="Calibri,Calibri_MSFontService,sans-serif" font-weight="700" font-size="83" transform="matrix(1 0 0 1 343.314 1826)">Actual Size of HD in Bytes = </text><text font-family="Calibri,Calibri_MSFontService,sans-serif" font-weight="700" font-size="83" transform="matrix(1 0 0 1 455.766 1925)">Size of HD (GB) </text><text font-family="Calibri,Calibri_MSFontService,sans-serif" font-weight="700" font-size="83" transform="matrix(1 0 0 1 988.189 1925)">×</text><text font-family="Calibri,Calibri_MSFontService,sans-serif" font-weight="700" font-size="83" transform="matrix(1 0 0 1 1048.35 1925)">10</text><text font-family="Calibri,Calibri_MSFontService,sans-serif" font-weight="700" font-size="55" transform="matrix(1 0 0 1 1131.99 1900)">9</text><path d="M50.5 2065.33C50.5 2049.41 63.4097 2036.5 79.3345 2036.5L1537.67 2036.5C1553.59 2036.5 1566.5 2049.41 1566.5 2065.33L1566.5 2180.67C1566.5 2196.59 1553.59 2209.5 1537.67 2209.5L79.3345 2209.5C63.4097 2209.5 50.5 2196.59 50.5 2180.67Z" stroke="#1C334E" stroke-width="9.16667" stroke-linejoin="round" stroke-miterlimit="10" fill="#FFFFFF" fill-rule="evenodd"/><text font-family="Calibri,Calibri_MSFontService,sans-serif" font-weight="700" font-size="83" transform="matrix(1 0 0 1 376.99 2100)">Actual Size of HD in GiB = </text><text font-family="Calibri,Calibri_MSFontService,sans-serif" font-weight="700" font-size="83" transform="matrix(1 0 0 1 421.792 2199)">Size of HD (Bytes) / 2</text><text font-family="Calibri,Calibri_MSFontService,sans-serif" font-weight="700" font-size="55" transform="matrix(1 0 0 1 1137.87 2174)">30</text><path d="M810.219 1660.5 810.219 1739.01 806.782 1739.01 806.781 1660.5ZM822.25 1734.42 808.5 1761.92 794.75 1734.42Z"/><path d="M810.219 1934.5 810.219 2013.01 806.782 2013.01 806.781 1934.5ZM822.25 2008.42 808.5 2035.92 794.75 2008.42Z"/><path d="M3016.5 2083.17C3016.5 2067.33 3029.33 2054.5 3045.17 2054.5L4371.83 2054.5C4387.67 2054.5 4400.5 2067.33 4400.5 2083.17L4400.5 2197.83C4400.5 2213.67 4387.67 2226.5 4371.83 2226.5L3045.17 2226.5C3029.33 2226.5 3016.5 2213.67 3016.5 2197.83Z" stroke="#1C334E" stroke-width="9.16667" stroke-linejoin="round" stroke-miterlimit="10" fill="#FFFFFF" fill-rule="evenodd"/><text font-family="Calibri,Calibri_MSFontService,sans-serif" font-weight="700" font-size="83" transform="matrix(1 0 0 1 3126.56 2118)">Bytes Lost = Theoretical size of HD </text><text font-family="Calibri,Calibri_MSFontService,sans-serif" font-weight="700" font-size="83" transform="matrix(1 0 0 1 3132.61 2217)">(bytes) </text><text font-family="Calibri,Calibri_MSFontService,sans-serif" font-weight="700" font-size="83" transform="matrix(1 0 0 1 3387.67 2217)">–</text><text font-family="Calibri,Calibri_MSFontService,sans-serif" font-weight="700" font-size="83" transform="matrix(1 0 0 1 3447.83 2217)">Actual Size of HD (bytes)</text><path d="M3710.22 1666.5 3710.22 2030.66 3706.78 2030.66 3706.78 1666.5ZM3722.25 2026.07 3708.5 2053.57 3694.75 2026.07Z"/><path d="M1633.5 1786.33C1633.5 1770.41 1646.41 1757.5 1662.33 1757.5L2890.67 1757.5C2906.59 1757.5 2919.5 1770.41 2919.5 1786.33L2919.5 1901.67C2919.5 1917.59 2906.59 1930.5 2890.67 1930.5L1662.33 1930.5C1646.41 1930.5 1633.5 1917.59 1633.5 1901.67Z" stroke="#1C334E" stroke-width="9.16667" stroke-linejoin="round" stroke-miterlimit="10" fill="#FFFFFF" fill-rule="evenodd"/><text font-family="Calibri,Calibri_MSFontService,sans-serif" font-weight="700" font-size="83" transform="matrix(1 0 0 1 1747.94 1821)">Theoretical size of HD (Bytes) = </text><text font-family="Calibri,Calibri_MSFontService,sans-serif" font-weight="700" font-size="83" transform="matrix(1 0 0 1 1932.46 1920)">Size of HD (GB) x 2</text><text font-family="Calibri,Calibri_MSFontService,sans-serif" font-weight="700" font-size="55" transform="matrix(1 0 0 1 2563.43 1895)">30</text><path d="M1582.5 1520.33C1582.5 1504.41 1595.41 1491.5 1611.33 1491.5L2937.67 1491.5C2953.59 1491.5 2966.5 1504.41 2966.5 1520.33L2966.5 1635.67C2966.5 1651.59 2953.59 1664.5 2937.67 1664.5L1611.33 1664.5C1595.41 1664.5 1582.5 1651.59 1582.5 1635.67Z" stroke="#1C334E" stroke-width="9.16667" stroke-linejoin="round" stroke-miterlimit="10" fill="#FFFFFF" fill-rule="evenodd"/><text font-family="Calibri,Calibri_MSFontService,sans-serif" font-weight="700" font-size="83" transform="matrix(1 0 0 1 1641.23 1605)">Compute Theoretical Size of HD (GiB)</text><path d="M2276.22 1213.5 2276.22 1469.11 2272.78 1469.11 2272.78 1213.5ZM2288.25 1464.52 2274.5 1492.02 2260.75 1464.52Z"/><path d="M2274.81 1230.81 3686.24 1488.8 3685.62 1492.18 2274.19 1234.19ZM3683.89 1476.14 3708.47 1494.61 3678.95 1503.19Z"/><path d="M2276.22 1664.46 2277.69 1734.61 2274.26 1734.68 2272.78 1664.54ZM2289.63 1729.77 2276.46 1757.55 2262.13 1730.35Z"/><path d="M209.5 2378C209.5 2340.72 477.681 2310.5 808.5 2310.5 1139.32 2310.5 1407.5 2340.72 1407.5 2378 1407.5 2415.28 1139.32 2445.5 808.5 2445.5 477.681 2445.5 209.5 2415.28 209.5 2378Z" stroke="#1C334E" stroke-width="9.16667" stroke-linejoin="round" stroke-miterlimit="10" fill="#FFFFFF" fill-rule="evenodd"/><text font-family="Calibri,Calibri_MSFontService,sans-serif" font-weight="700" font-size="83" transform="matrix(1 0 0 1 519.451 2405)">Output to screen</text><path d="M810.219 2209.5 810.219 2288.01 806.782 2288.01 806.781 2209.5ZM822.25 2283.42 808.5 2310.92 794.75 2283.42Z"/><path d="M3109.5 2397C3109.5 2359.72 3377.68 2329.5 3708.5 2329.5 4039.32 2329.5 4307.5 2359.72 4307.5 2397 4307.5 2434.28 4039.32 2464.5 3708.5 2464.5 3377.68 2464.5 3109.5 2434.28 3109.5 2397Z" stroke="#1C334E" stroke-width="9.16667" stroke-linejoin="round" stroke-miterlimit="10" fill="#FFFFFF" fill-rule="evenodd"/><text font-family="Calibri,Calibri_MSFontService,sans-serif" font-weight="700" font-size="83" transform="matrix(1 0 0 1 3419.56 2424)">Output to screen</text><path d="M1603.5 1165C1603.5 1127.72 1903.92 1097.5 2274.5 1097.5 2645.08 1097.5 2945.5 1127.72 2945.5 1165 2945.5 1202.28 2645.08 1232.5 2274.5 1232.5 1903.92 1232.5 1603.5 1202.28 1603.5 1165Z" stroke="#1C334E" stroke-width="9.16667" stroke-linejoin="round" stroke-miterlimit="10" fill="#FFFFFF" fill-rule="evenodd"/><text font-family="Calibri,Calibri_MSFontService,sans-serif" font-weight="700" font-size="83" transform="matrix(1 0 0 1 1834.53 1192)">Get Input: Size of HD (GB)</text><path d="M2276.97 1928.85 2994.96 2132.79 2994.02 2136.1 2276.03 1932.15ZM2993.84 2119.97 3016.54 2140.71 2986.33 2146.42Z"/><path d="M1566.52 2120.78 2993.57 2138.16 2993.53 2141.6 1566.48 2124.22ZM2989.13 2126.07 3016.46 2140.16 2988.8 2153.57Z"/><path d="M3710.22 2226.5 3710.22 2306.74 3706.78 2306.74 3706.78 2226.5ZM3722.25 2302.16 3708.5 2329.66 3694.75 2302.16Z"/></g></svg>